<?xml version="1.0" encoding="UTF-8"?>
<svg xmlns="http://www.w3.org/2000/svg" xmlns:xlink="http://www.w3.org/1999/xlink" width="24px" height="20px" version="1.1" viewBox="0 0 24 20">
    <title>
        Shape
    </title>
    <desc>
        Created by Kiko Estrada.
    </desc>
    <defs/>
    <g id="Page-1" fill="none" fill-rule="evenodd" stroke="none" stroke-width="1">
        <g id="Desktop" fill="#FFFFFF" fill-rule="nonzero" transform="translate(-2095.000000, -4831.000000)">
            <g id="Footer" transform="translate(-405.000000, 4738.000000)">
                <g id="Group-26" transform="translate(2293.000000, 88.000000)">
                    <g id="Copyright">
                        <g id="Social">
                            <path id="Shape" d="M231,7.309 C230.117,7.701 229.168,7.965 228.172,8.084 C229.189,7.475 229.97,6.51 230.337,5.36 C229.386,5.924 228.332,6.334 227.21,6.555 C226.313,5.598 225.032,5 223.616,5 C220.437,5 218.101,7.966 218.819,11.045 C214.728,10.84 211.1,8.88 208.671,5.901 C207.381,8.114 208.002,11.009 210.194,12.475 C209.388,12.449 208.628,12.228 207.965,11.859 C207.911,14.14 209.546,16.274 211.914,16.749 C211.221,16.937 210.462,16.981 209.69,16.833 C210.316,18.789 212.134,20.212 214.29,20.252 C212.22,21.875 209.612,22.6 207,22.292 C209.179,23.689 211.768,24.504 214.548,24.504 C223.69,24.504 228.855,16.783 228.543,9.858 C229.505,9.163 230.34,8.296 231,7.309 Z"/>
                        </g>
                    </g>
                </g>
            </g>
        </g>
    </g>
</svg>
