<?xml version="1.0" encoding="utf-8"?>
<!-- Generator: Adobe Illustrator 22.0.0, SVG Export Plug-In . SVG Version: 6.00 Build 0)  -->
<svg version="1.2" baseProfile="tiny" xmlns="http://www.w3.org/2000/svg" xmlns:xlink="http://www.w3.org/1999/xlink" x="0px"
	 y="0px" viewBox="0 0 19 17" xml:space="preserve">
<g id="Layer_1">
	<title>3</title>
	<desc>Created with Sketch.</desc>
	<polygon fill="#FFFFFF" points="5.9,0 7.2,0 2.1,9.2 9.4,9.2 10.3,10.5 0,10.5 	"/>
	<polygon fill="#FFFFFF" points="13,11.9 11.7,11.9 16.9,2.7 9.5,2.7 8.7,1.4 18.9,1.4 	"/>
	<polygon fill="#FFFFFF" points="0.1,10.7 10.4,10.7 11,11.9 0.7,11.9 	"/>
	<polygon fill="#FFFFFF" points="7.8,0 18.2,0 19,1.2 8.5,1.1 	"/>
	<polygon fill="#FFFFFF" points="2.5,9 3.9,9 7.5,2.5 11.3,9 12,7.8 7.5,0.2 	"/>
	<polygon fill="#FFFFFF" points="7.6,3.2 11.3,9.6 15.2,3.1 16.4,3.1 11.4,11.9 7,4.4 	"/>
</g>
<g id="Layer_2">
</g>
</svg>
